{
  "accessors": [
    {
      "bufferView": 2,
      "componentType": 5126,
      "count": 43963,
      "max": [
        10.696258544921875,
        8.116517066955566,
        4.108160972595215
      ],
      "min": [
        -11.014440536499023,
        0.04442303627729416,
        -4.132102966308594
      ],
      "type": "VEC3"
    },
    {
      "bufferView": 2,
      "byteOffset": 527556,
      "componentType": 5126,
      "count": 43963,
      "max": [
        0.9999338388442993,
        0.9999920725822449,
        0.9999812841415405
      ],
      "min": [
        -0.9999484419822693,
        -0.9999985694885254,
        -0.9999976754188538
      ],
      "type": "VEC3"
    },
    {
      "bufferView": 3,
      "componentType": 5126,
      "count": 43963,
      "max": [
        0.9999720454216003,
        0.9997928738594055,
        0.9999976754188538,
        1.0
      ],
      "min": [
        -0.9999809861183167,
        -0.9998891949653625,
        -0.9999799132347107,
        1.0
      ],
      "type": "VEC4"
    },
    {
      "bufferView": 1,
      "componentType": 5126,
      "count": 43963,
      "max": [
        0.9938899874687195,
        0.9960899949073792
      ],
      "min": [
        0.0038999998942017555,
        0.0038999998942017555
      ],
      "type": "VEC2"
    },
    {
      "bufferView": 0,
      "componentType": 5125,
      "count": 141384,
      "type": "SCALAR"
    }
  ],
  "asset": {
    "extras": {
      "author": "grafi (https://sketchfab.com/zdenkoroman)",
      "license": "CC-BY-4.0 (http://creativecommons.org/licenses/by/4.0/)",
      "source": "https://sketchfab.com/3d-models/reserved-shoe-sneakers-3d-scan-0316f0e13aba46e5a61e468397a07ab2",
      "title": "Reserved Shoe Sneakers 3D Scan"
    },
    "generator": "Sketchfab-14.77.0",
    "version": "2.0"
  },
  "bufferViews": [
    {
      "buffer": 0,
      "byteLength": 565536,
      "name": "floatBufferViews",
      "target": 34963
    },
    {
      "buffer": 0,
      "byteLength": 351704,
      "byteOffset": 565536,
      "byteStride": 8,
      "name": "floatBufferViews",
      "target": 34962
    },
    {
      "buffer": 0,
      "byteLength": 1055112,
      "byteOffset": 917240,
      "byteStride": 12,
      "name": "floatBufferViews",
      "target": 34962
    },
    {
      "buffer": 0,
      "byteLength": 703408,
      "byteOffset": 1972352,
      "byteStride": 16,
      "name": "floatBufferViews",
      "target": 34962
    }
  ],
  "buffers": [
    {
      "byteLength": 2675760,
      "uri": "scene.bin"
    }
  ],
  "images": [
    {
      "uri": "textures/reserved1_baseColor.jpeg"
    },
    {
      "uri": "textures/reserved1_metallicRoughness.png"
    },
    {
      "uri": "textures/reserved1_normal.png"
    }
  ],
  "materials": [
    {
      "doubleSided": true,
      "name": "reserved1",
      "normalTexture": {
        "index": 2
      },
      "occlusionTexture": {
        "index": 1
      },
      "pbrMetallicRoughness": {
        "baseColorTexture": {
          "index": 0
        },
        "metallicFactor": 0.0,
        "metallicRoughnessTexture": {
          "index": 1
        }
      }
    }
  ],
  "meshes": [
    {
      "name": "reserved_reserved1_0",
      "primitives": [
        {
          "attributes": {
            "NORMAL": 1,
            "POSITION": 0,
            "TANGENT": 2,
            "TEXCOORD_0": 3
          },
          "indices": 4,
          "material": 0,
          "mode": 4
        }
      ]
    }
  ],
  "nodes": [
    {
      "children": [
        1
      ],
      "matrix": [
        1.0,
        0.0,
        0.0,
        0.0,
        0.0,
        2.220446049250313e-16,
        -1.0,
        0.0,
        0.0,
        1.0,
        2.220446049250313e-16,
        0.0,
        0.0,
        0.0,
        0.0,
        1.0
      ],
      "name": "Sketchfab_model"
    },
    {
      "children": [
        2
      ],
      "matrix": [
        0.009999999776482582,
        0.0,
        0.0,
        0.0,
        0.0,
        0.0,
        0.009999999776482582,
        0.0,
        0.0,
        -0.009999999776482582,
        0.0,
        0.0,
        0.0,
        0.0,
        0.0,
        1.0
      ],
      "name": "reserved.fbx"
    },
    {
      "children": [
        3
      ],
      "name": "RootNode"
    },
    {
      "children": [
        4
      ],
      "name": "reserved"
    },
    {
      "mesh": 0,
      "name": "reserved_reserved1_0"
    }
  ],
  "samplers": [
    {
      "magFilter": 9729,
      "minFilter": 9987,
      "wrapS": 10497,
      "wrapT": 10497
    }
  ],
  "scene": 0,
  "scenes": [
    {
      "name": "Sketchfab_Scene",
      "nodes": [
        0
      ]
    }
  ],
  "textures": [
    {
      "sampler": 0,
      "source": 0
    },
    {
      "sampler": 0,
      "source": 1
    },
    {
      "sampler": 0,
      "source": 2
    }
  ]
}
